<?xml version="1.0" standalone="no"?>
<!DOCTYPE svg PUBLIC "-//W3C//DTD SVG 20010904//EN"
 "http://www.w3.org/TR/2001/REC-SVG-20010904/DTD/svg10.dtd">
<svg version="1.0" xmlns="http://www.w3.org/2000/svg"
 width="143.000000pt" height="143.000000pt" viewBox="0 0 143.000000 143.000000"
 preserveAspectRatio="xMidYMid meet">
<metadata>
Created by potrace 1.11, written by Peter Selinger 2001-2013
</metadata>
<g transform="translate(0.000000,143.000000) scale(0.100000,-0.100000)"
fill="#000000" stroke="none">
<path d="M580 1344 c-64 -14 -220 -82 -220 -96 0 -5 -6 -8 -13 -8 -24 0 -141
-126 -183 -197 -33 -55 -70 -139 -66 -150 0 -1 -6 -22 -13 -46 -13 -44 -14
-229 -1 -275 3 -12 8 -31 11 -42 2 -12 21 -56 41 -98 89 -186 232 -302 444
-356 72 -19 247 -14 320 9 213 66 378 230 441 437 31 98 33 257 6 363 -12 44
-48 121 -83 176 -144 226 -417 339 -684 283z"/>
</g>
</svg>
