<?xml version="1.0" standalone="no"?>
<!DOCTYPE svg PUBLIC "-//W3C//DTD SVG 20010904//EN"
 "http://www.w3.org/TR/2001/REC-SVG-20010904/DTD/svg10.dtd">
<svg version="1.0" xmlns="http://www.w3.org/2000/svg"
 width="280.000000pt" height="280.000000pt" viewBox="0 0 280.000000 280.000000"
 preserveAspectRatio="xMidYMid meet">
<metadata>
Created by potrace 1.11, written by Peter Selinger 2001-2013
</metadata>
<g transform="translate(0.000000,280.000000) scale(0.100000,-0.100000)"
fill="#000000" stroke="none">
<path d="M0 1836 c0 -762 3 -965 13 -969 10 -4 10 -6 0 -6 -10 -1 -13 -94 -13
-431 l0 -430 1400 0 1400 0 0 1400 0 1400 -1400 0 -1400 0 0 -964z m1600 489
c378 -77 678 -393 740 -779 16 -96 8 -288 -16 -376 -85 -322 -325 -574 -639
-673 -228 -71 -455 -55 -671 47 -112 53 -165 89 -250 168 -396 371 -398 1000
-4 1372 229 216 536 304 840 241z m-1540 -975 c0 -5 -4 -10 -10 -10 -5 0 -10
5 -10 10 0 6 5 10 10 10 6 0 10 -4 10 -10z m200 -754 c0 -3 -4 -8 -10 -11 -5
-3 -10 -1 -10 4 0 6 5 11 10 11 6 0 10 -2 10 -4z"/>
<path d="M1261 2266 c-188 -36 -342 -116 -471 -246 -141 -140 -231 -331 -255
-537 l-7 -63 194 0 193 0 47 100 c34 72 52 100 65 100 14 0 42 -47 108 -181
50 -99 93 -183 97 -185 4 -3 49 79 99 181 62 123 98 185 108 185 11 0 48 -63
109 -186 89 -178 94 -186 108 -165 8 11 51 95 95 186 58 121 84 165 97 165 12
0 32 -28 65 -95 l47 -95 163 0 163 0 -7 68 c-16 138 -69 284 -140 389 -48 71
-165 189 -232 235 -80 55 -187 103 -282 128 -104 27 -266 34 -364 16z"/>
<path d="M982 1465 l-42 -85 -206 0 -206 0 7 -62 c24 -205 107 -382 247 -526
83 -85 151 -135 251 -183 128 -61 219 -81 372 -82 114 -1 142 2 230 28 163 46
262 103 383 219 63 61 140 164 179 241 33 65 73 204 81 288 5 42 6 80 3 82 -2
3 -82 5 -176 5 l-172 0 -39 80 c-21 44 -41 80 -44 80 -3 0 -46 -81 -95 -180
-73 -146 -93 -180 -110 -180 -17 0 -38 34 -110 180 -50 99 -92 180 -95 180 -3
0 -46 -81 -95 -180 -72 -145 -94 -180 -110 -180 -16 0 -38 35 -110 180 -50 99
-92 180 -95 180 -3 0 -25 -38 -48 -85z"/>
</g>
</svg>
